<svg xmlns="http://www.w3.org/2000/svg" viewBox="0 0 900.99 656.35"><defs><style>.cls-1{fill:#d32d71;}.cls-2{opacity:0.96;}</style></defs><title>Asset 8</title><g id="Layer_2" data-name="Layer 2"><g id="Layer_1-2" data-name="Layer 1"><path d="M72.75,380.32c-2.11,0-3.92,20.82-4.87,31.69-1.73,19.91-2.18,40.89-2.18,40.9H78.8s-.23-20.33-1.51-39C76.58,403.52,75,380.35,72.75,380.32Z"/><path d="M70.39,604.93c2,0,3.76-16.8,4.67-25.57,1.65-16.06,2.09-33,2.09-33H64.6s.22,16.4,1.45,31.44C66.73,586.21,68.26,604.91,70.39,604.93Z"/><path d="M147.74,557.39c-.57-.5-2.62,3.24-8.13,5.14-4.68,1.61-7.88.54-11.14,3.43-1.81,1.61-1.74,2.76-1.71,3,.17,1.58,2.19,2.66,3.64,3s3.66.14,7.28-2.35C144.29,565.05,148.53,558.09,147.74,557.39Z"/><path d="M162.67,558.36c.52-.56,2.94,3,8.64,4.3,4.83,1.14,7.92-.24,11.46,2.31,2,1.42,2,2.57,2,2.81,0,1.59-1.92,2.86-3.34,3.34s-3.64.51-7.51-1.62C166.88,565.63,162,559.13,162.67,558.36Z"/><path class="cls-1" d="M139.44,639.18c3,3,8.4,7.55,15.1,9.8v.38c6.7-2.25,12.06-6.84,15.09-9.79a59.14,59.14,0,0,0,5.49-5.85H134.24A65.38,65.38,0,0,0,139.44,639.18Z"/><path class="cls-1" d="M177.33,612.43c-2.88-4.53-9.42-9.2-15.57-6.91-5.17,1.93-7,7.63-7.22,8.51v-.38c-.26-.89-2-6.58-7.23-8.51-6.15-2.29-12.69,2.38-15.57,6.91-4,6.32-1.64,13.51-.76,15.89h47.25C179.18,625.24,181.16,618.45,177.33,612.43Z"/><path d="M41.54,457.62c-.28.6,4,2.06,4.07,4.28.17,3.35-9.16,6.37-12.63,7.49a82.39,82.39,0,0,1-18.2,3.21c-1.75.11-8.47.54-10.83,0-.15,0-.48-.11-.52,0-.11.26,2.61,2.16,5.57,2.79,1.6.34,2.08.05,5.56-.22,8.23-.63,9.41.66,12-.85a3.11,3.11,0,0,1,2.36-.65,2.65,2.65,0,0,1,1.71,2.79c-.23.85-1.37,1.62-7.71,2.35a68.92,68.92,0,0,1-12,.65C3.8,479.22.12,478.31,0,478.81s4,2.38,8.57,3.21a36.85,36.85,0,0,0,13.91-.42c6.28-1.2,10.52-3.23,10.71-2.79s-7.35,4.27-7.07,4.93,8.73-2.89,9.21-1.93c.38.74-3.87,4.46-9.42,6.64C16.94,492,9,489.73,8.78,491c-.16.86,3.2,2.79,7.07,3.21,3.65.39,7.32-.62,16.7-6.42,7.61-4.72,12.87-8.81,13.06-8.57S33.89,489,34.69,490.16c.38.55,3.55-.78,6-2.35s3.34-2.82,7.5-7.28c3.43-3.68,5.14-5.51,5.35-5.36.44.32-2.49,6.78-7.92,12.42-3.61,3.76-8.31,6.55-17.56,12-6.36,3.74-9.61,5.33-9.42,5.78s5.76-.9,10.92-3.21c1.87-.84,7.53-3.5,15.85-10.49,7.59-6.39,10-10.19,10.49-9.85.85.66-7.18,15.26-16.7,19.91-.88.43-3.34,1.54-3.22,1.93s3.3,0,6-1.07c3.21-1.31,5.07-3.35,8.56-7.49,6.16-7.29,8.08-10,8.35-9.85.45.28-3.32,7.77-8.56,15.63-3.43,5.15-6.24,8.56-6,8.78.47.39,10.73-11.43,11.35-10.92s-10.86,14.73-9.85,15.63c.64.56,6.28-4.06,10.71-9.85a45.82,45.82,0,0,0,8.19-16.4c1.42-5.44,1.33-9.52,1.87-9.51s1.29,4.24.86,8.56a29.09,29.09,0,0,1-4.71,12.64c-2.51,4.12-8.49,12.38-11.56,16.27a5.6,5.6,0,0,0-1.29,3c-.12,1.34.28,3.23,1.07,3.42,1.46.36,3.19-5.27,7.92-13.06,4.22-6.94,5.19-6.32,8.14-11.78,4.46-8.25,5.07-14.9,5.78-14.77s.34,6.92-.85,13.7a77.92,77.92,0,0,1-5.14,18C61.7,526.48,55,533.45,55.89,534.27c.51.44,2.88-1.32,4.71-3,8.3-7.62,11-18.62,10.49-18.84-.87-.36-12.5,25.18-11.56,25.69.45.25,3.87-5.2,6-8.56,4.19-6.66,6.66-10.58,8.57-15.2,4.5-10.94,3.52-20.15,3.85-20.13s.87,12.08-1.71,24.19c-1.68,7.85-2.51,11.77-4.28,15.85-.42,1-1.37,3-1.08,3.21s2.75-2.77,4.29-5.35c3.14-5.28,3.15-9.43,4.71-18.84,1.18-7.14,1.35-5.8,2.35-12C84.55,487,84.27,476,84.58,476s.19,17.3,1.07,17.34,1.68-15.22,2.78-15.2S91.18,492,90.36,507.5c-.28,5.27-1.56,24.11-3.43,37.9-.08.6-.46,3.38-.21,3.43.59.12,3.62-15.77,4.5-15.63.72.11,1.48,11.48-3.64,21.62-1.09,2.15-2.75,4.86-2.36,5.14s3.15-2.34,4.93-4.92c3.19-4.66,3.55-9.46,3.85-15.85.54-11.38.31-15.07.64-21.62.39-7.66,1.51-18.65,2.36-18.63,1.24,0,1.66,23.79.64,38.33-.53,7.56-.88,12.46-2.57,18.84-.55,2.08-1.32,4.61-1.07,4.71s2.86-5,4.5-9.85a64.79,64.79,0,0,0,3-17.34c.6-11.12-1.39-12.25-.64-23.77.17-2.61.42-4.74.86-11.35.42-6.35.43-8.13.64-8.13.5,0,.94,10.12,2.57,29.76,1,12.36,1.33,14.15,1.07,18.84-.59,10.57-3.07,18.35-2.14,18.63.64.19,2.4-3.35,3.42-6.43,1.1-3.29,1.58-6.79,1.29-14.13-.27-6.61-.79-7.09-1.07-12.63-.38-7.43.45-8.77.43-15.63,0-11.51-2.45-19-2.14-19.06s4.54,12.47,6,28.48c.91,10,1.65,18.21-.64,28.69-1.4,6.39-3.69,12.55-2.57,13.06.8.37,3-2.32,4.28-4.71,2.3-4.17,2.38-8.1,2.36-14.77,0-7.81,0-11.71-.22-14.56-.3-5.28-.72-12.5-1.71-19.7a153.54,153.54,0,0,0-7.92-31.48c.3-.09,9,32.78,13.27,46,0,0,2.58,8.08,2.12,13.74-.36,4.44-.62,5.74-.62,5.74-.36,1.81-.72,2.84-.43,3,.44.23,2.1-1.5,3-3.42,1.38-2.94.73-5.77.21-8.57-1.29-7,.44-2-1.49-12.42-1.77-9.53-3.9-17.39-5.36-22.48-2.94-10.26-4.8-14.87-4.49-15s5.6,9.61,9.2,21.84a160,160,0,0,1,4.93,28.69c.66,7.7,1,11.55.64,13.72-.12.77-.46,2.59,0,2.77s1.7-1.43,2.36-3a10.56,10.56,0,0,0,.42-6.21c-1.29-6.14.74-6.76-1.5-21-1.91-12.2-2.87-18.3-6.2-25.27-3.14-6.54-14.76-27.43-15.85-31.9a2.75,2.75,0,0,1,.22-2.35c.84-1,2.63-.19,3.21-1.07a2,2,0,0,0-.65-2.36c-1.51-1.08-4.76,1.08-5.78,1.71-7.37,4.58-23,6.39-32.76,5.78a93.55,93.55,0,0,1-22.91-4.06S41.86,456.92,41.54,457.62Z"/><path d="M272.63,459.16c.28.6-3.95,2.06-4.07,4.28-.17,3.35,9.16,6.37,12.63,7.49a82.72,82.72,0,0,0,18.2,3.22c1.75.11,8.47.53,10.83,0,.15,0,.48-.12.52,0,.11.25-2.61,2.15-5.57,2.78-1.6.34-2.08.06-5.56-.21-8.23-.64-9.41.65-12-.86a3.07,3.07,0,0,0-2.36-.64,2.63,2.63,0,0,0-1.71,2.78c.23.86,1.37,1.62,7.71,2.36a70,70,0,0,0,12,.64c7.12-.23,10.8-1.15,10.92-.64s-3.95,2.38-8.57,3.21a36.81,36.81,0,0,1-13.91-.43c-6.27-1.2-10.52-3.23-10.71-2.78s7.35,4.26,7.07,4.92-8.73-2.88-9.21-1.93c-.37.74,3.87,4.46,9.42,6.64,9,3.53,16.89,1.28,17.13,2.57.16.86-3.2,2.79-7.07,3.21-3.65.4-7.32-.61-16.7-6.42-7.61-4.72-12.86-8.81-13.06-8.57s11.72,9.75,10.92,10.92c-.38.55-3.55-.78-6-2.35s-3.33-2.82-7.5-7.28c-3.42-3.67-5.14-5.51-5.35-5.35-.43.31,2.49,6.77,7.92,12.41,3.62,3.76,8.31,6.55,17.56,12,6.36,3.74,9.61,5.33,9.42,5.79s-5.76-.9-10.92-3.22c-1.87-.83-7.53-3.5-15.84-10.49-7.6-6.38-10-10.19-10.49-9.85-.85.66,7.17,15.26,16.7,19.92.87.42,3.33,1.54,3.21,1.92s-3.3,0-6-1.07c-3.21-1.31-5.06-3.35-8.56-7.49-6.16-7.29-8.07-10-8.35-9.85-.44.28,3.32,7.78,8.56,15.63,3.44,5.15,6.25,8.57,6,8.78-.47.39-10.72-11.43-11.35-10.92s10.86,14.74,9.85,15.63c-.64.56-6.28-4-10.71-9.85a45.82,45.82,0,0,1-8.19-16.4c-1.42-5.43-1.33-9.52-1.87-9.51s-1.28,4.25-.86,8.57a29.09,29.09,0,0,0,4.71,12.63c2.51,4.12,8.49,12.38,11.57,16.27a5.74,5.74,0,0,1,1.28,3c.12,1.35-.28,3.23-1.07,3.42-1.45.36-3.19-5.27-7.92-13.06-4.22-6.94-5.19-6.32-8.14-11.77-4.46-8.26-5.07-14.91-5.78-14.78s-.33,6.93.86,13.71a76.73,76.73,0,0,0,5.14,18c5.1,11.91,11.85,18.88,10.92,19.7-.52.45-2.89-1.32-4.71-3-8.31-7.62-11-18.61-10.5-18.84.87-.35,12.5,25.18,11.57,25.69-.45.25-3.88-5.19-6-8.56-4.19-6.66-6.66-10.58-8.56-15.2-4.51-10.94-3.53-20.15-3.86-20.13s-.87,12.08,1.72,24.2c1.67,7.84,2.51,11.76,4.28,15.84.42,1,1.36,3,1.07,3.21s-2.75-2.77-4.28-5.35c-3.14-5.28-3.15-9.42-4.71-18.84-1.19-7.14-1.35-5.79-2.36-12-2.32-14.33-2-25.27-2.35-25.27s-.19,17.3-1.08,17.34-1.67-15.21-2.78-15.2-2.74,13.87-1.93,29.34c.28,5.26,1.56,24.1,3.43,37.89.08.6.46,3.38.21,3.43-.59.12-3.62-15.77-4.49-15.63-.72.12-1.48,11.48,3.64,21.63,1.08,2.15,2.74,4.85,2.35,5.13s-3.15-2.34-4.92-4.92c-3.2-4.66-3.55-9.46-3.86-15.84-.53-11.39-.31-15.08-.64-21.63-.38-7.65-1.51-18.65-2.35-18.63-1.24,0-1.67,23.79-.64,38.33.53,7.56.87,12.46,2.56,18.84.56,2.08,1.33,4.62,1.07,4.71s-2.85-5-4.49-9.85a64.41,64.41,0,0,1-3-17.34c-.59-11.11,1.4-12.25.64-23.77-.17-2.61-.42-4.74-.85-11.35-.42-6.35-.44-8.13-.65-8.13-.49,0-.94,10.12-2.56,29.76-1,12.36-1.34,14.15-1.07,18.84.58,10.57,3.06,18.35,2.14,18.63-.64.19-2.41-3.35-3.43-6.42-1.09-3.3-1.58-6.79-1.28-14.14.26-6.61.78-7.09,1.07-12.63.37-7.43-.46-8.77-.43-15.63.05-11.51,2.44-19,2.14-19.06s-4.54,12.47-6,28.48c-.91,10-1.65,18.21.65,28.69,1.39,6.39,3.68,12.55,2.57,13.06-.8.37-3-2.31-4.29-4.71C199,552.62,199,548.69,199,542c0-7.81.05-11.71.21-14.56.31-5.28.73-12.5,1.72-19.7a153.08,153.08,0,0,1,7.92-31.47c-.3-.1-9,32.77-13.28,46,0,0-2.58,8.08-2.12,13.74.37,4.44.62,5.75.62,5.75.36,1.8.73,2.84.43,3s-2.09-1.5-3-3.42c-1.38-2.94-.73-5.76-.22-8.57,1.29-7-.44-2,1.5-12.42,1.77-9.52,3.89-17.38,5.35-22.48,2.95-10.26,4.8-14.87,4.5-15-.45-.17-5.61,9.61-9.21,21.84a160.82,160.82,0,0,0-4.92,28.7c-.66,7.69-1,11.54-.64,13.72.12.76.45,2.58,0,2.76s-1.7-1.43-2.36-3a10.56,10.56,0,0,1-.43-6.2c1.29-6.15-.73-6.77,1.5-21,1.92-12.2,2.87-18.3,6.21-25.26,3.14-6.55,14.76-27.44,15.84-31.91a2.74,2.74,0,0,0-.21-2.35c-.85-1-2.63-.19-3.21-1.07a2,2,0,0,1,.64-2.36c1.52-1.08,4.77,1.09,5.78,1.72,7.38,4.57,23,6.38,32.76,5.78a93.67,93.67,0,0,0,22.91-4.07S272.31,458.47,272.63,459.16Z"/><path class="cls-1" d="M283.29,453.53c.31-4.31,4.31-6.88,49.37-23.54,5.18-1.91,11.27-4.07,18.46-2.3,9.58,2.35,14.91,10.13,16.15,12a32.59,32.59,0,0,1,5.08,19.38c-.48,17.48-13,30.55-18.46,36.45-37.22,40.33-55.2,83.3-58.6,81.21-1.37-.84,2.84-7.1,6.92-22.61,2.93-11.14,7.12-27.06,4.62-47.06-1.32-10.51-3.16-25.27-13.39-39.22C287.19,459.29,283,458.11,283.29,453.53Z"/><path class="cls-1" d="M158.91,3.27c-6,6.64,1.57,18.5,6.42,38.54C172.05,69.6,167,94.17,157,143.3c-7,34.32-15.75,60.06-27.62,95.06-1.42,4.19-3.1,9-3.1,9-6.65,19.3-12.68,36.19-18,51.15l-.08.2s-3.17,6.59-7.71,9.64c-4,2.67-8.54,2.29-12.84,1.93a36.38,36.38,0,0,1-15.2-4.66c-1.71-1-5.2-4.8-7.28-9.48-3.7-8.3-3.53-12.33-4.5-25.42-1.06-14.33-.49-10.77-1.07-29.82-.8-25.93-1.29-39-1.29-39a64.84,64.84,0,0,0-4.71-23.33c-1.44-3.41-5.07-12-11.56-12.85-4.49-.61-8.34,2.73-9.63,3.85-4.65,4-13.13,15.6-7.07,63,1.81,14.15,4.13,31.55,11.56,54.6a274.89,274.89,0,0,0,28.91,62.31c10.22,16.1,22,34.66,44.32,52.67a178.13,178.13,0,0,0,66.16,33.4c25.48,6.69,45.83,5.85,62.95,5.14,13.05-.54,31.76-1.43,55.24-8.35a211.79,211.79,0,0,0,59.1-28.26c12.39-8.23,18.58-12.35,23.76-18.63,15.75-19.09,25.38-37.71,27.3-51,.23-1.55.27-6-1-8.75-1.44-3.17-7.66-3.2-9-3.21-11.42-.06-19.66,10.9-34.69,26.34s-22.72,23.32-30.83,26.33c-14,5.2-34.09,4.15-43-7.06-8-10-4.49-24.84,0-40.47,18.07-62.88,39.83-100.85,39.83-100.85,30.26-52.8,45.38-79.19,71.94-90.57,11.7-5,36.11-12.36,35.33-19.91-.29-2.77-3.86-4.52-5.14-5.14C389.5,92.36,352.49,70,312.43,54.65,280.79,42.54,281.09,40,225.71,18,184.22,1.56,165.75-4.31,158.91,3.27Z"/><path d="M307.19,266.74c-22.78.57-60.39,9.49-103.75-10.82-26.11-12.23-51.23-34.22-64.71-46.55l-19,56.73c13.48,12.33,33.62,39.25,59.73,51.49,43.36,20.3,83,13.6,105.79,13Z"/><path class="cls-1" d="M168.49,245.93c-3.17-2.49-9-4.17-12.75-1-3.19,2.66-3,7.14-3,7.83l-.09-.27c-.41-.56-3.09-4.15-7.24-4.23-4.93-.09-8.4,4.85-9.32,8.77-1.27,5.48,2.21,10,3.42,11.45a36.12,36.12,0,0,0,8.8,5.86,31.41,31.41,0,0,0,13.13,3.18l.09.27a31.11,31.11,0,0,0,8.25-10.69c1.07-2.16,3.21-6.24,3.21-10.38C173,254.55,172.7,249.24,168.49,245.93Z"/><g class="cls-2"><path class="cls-1" d="M511.1,495.34a11.43,11.43,0,0,1-3.58,3.35,15.06,15.06,0,0,1-3.89,1.63,13.73,13.73,0,0,1-4.67.47,5.17,5.17,0,0,1-2-.47,16.07,16.07,0,0,1-2-.85,5.11,5.11,0,0,1-1.87-1.64q-2.18-7.79-3.89-15.09t-3-13.07q-1.56-6.69-2.65-12.6-4.2-.15-12.52-.08t-18,1q-3,9.35-4.67,15.72t-2.49,10.58a29.53,29.53,0,0,0-.62,6.92,15.64,15.64,0,0,0,.93,4.75,16.2,16.2,0,0,1-4.28,3.19,15.49,15.49,0,0,1-3.81,1.32,12.76,12.76,0,0,1-3.89.31,19.87,19.87,0,0,1-4.05-.86,4.07,4.07,0,0,1-2.25-1.71,5.41,5.41,0,0,1-.47-3.34,42.69,42.69,0,0,1,1.17-5.76q.93-3.11,3.5-11.12T438,459.72q-5.91.46-9.1-.63c-2.13-.72-3.6-2.69-4.43-5.91,1.66-.52,3.44-1,5.37-1.48l5.52-1.32c2-.41,4-.78,6.07-1.09q3.25-10.28,6.69-20.23t6.38-17.89l9-24.11c.21-.63,1.3-1.3,3.27-2a43.4,43.4,0,0,1,6.53-1.79,36.28,36.28,0,0,1,6.85-.7q3.27,0,4.2,1.41.46,3.26,1.32,8.09t1.63,9.33q.94,5.29,2.18,10.89,1.41,7.78,3,17.27t4.12,20.23q2.49,10.73,5.91,22.25A206.41,206.41,0,0,0,511.1,495.34Zm-43.25-48.69q5-.16,8.24-.16c2.18,0,4.05.05,5.6.16l-.46-2.34c-.63-3.83-1.27-7.93-2-12.29s-1.35-8.66-2-12.91-1.32-8.3-1.95-12.14-1.14-7.21-1.55-10.11q-1.56,4-3.58,9.72T465.82,419q-2.32,6.69-4.74,14t-4.75,14.47c1.87-.2,3.74-.36,5.6-.46S465.77,446.75,467.85,446.65Z"/><path class="cls-1" d="M575.35,418.48c-1.14-.2-2.67-.41-4.58-.62s-3.87-.36-5.84-.46q-3.42-.16-7.31-.16a84.39,84.39,0,0,0-9.73-.08q-5.83.24-12.21.24c-.1,2.69-.29,5.44-.54,8.24s-.5,5.55-.7,8.25q-.78,7.47-1.33,15.25t-.54,14.78a84.37,84.37,0,0,0,.86,12.68,20.53,20.53,0,0,0,3.18,8.94,13.54,13.54,0,0,1-4,2.1,30.88,30.88,0,0,1-3.89,1,17.49,17.49,0,0,1-4,.47,4.26,4.26,0,0,1-3.11-1.24c-.83-.83-1.3-2.28-1.4-4.36a105.18,105.18,0,0,1-.08-10.66q.24-5.37.63-11.28t.85-12.68q.47-6.76.94-14.86.46-8.4.46-16.33-5.91.15-9.95.15a32.24,32.24,0,0,1-4.52-.15,4.5,4.5,0,0,1-1.09-1.4c-.41-.63-.95-1.56-1.63-2.8s-1.53-3-2.57-5.29h6.46c2.33,0,4.49-.05,6.46-.16l6.84-.31c-.1-1.66-.15-3.42-.15-5.29-.11-1.45-.16-3.09-.16-4.9s-.05-3.5-.15-5.06q0-.93,2.25-2.25a39.91,39.91,0,0,1,4.9-2.42,20.81,20.81,0,0,1,4.9-1.4c1.51-.2,2.26.16,2.26,1.09s0,3.19-.08,6.77-.18,7.91-.39,13a13.43,13.43,0,0,0,2.34-.15q8.24-.31,13.3-.7a49.83,49.83,0,0,1,8.32-.08A16.48,16.48,0,0,1,566,407.9a26.88,26.88,0,0,1,5.6,4.05,11.41,11.41,0,0,1,1.87,2,9.81,9.81,0,0,1,1.32,2.1A5.71,5.71,0,0,1,575.35,418.48Z"/><path class="cls-1" d="M570.06,489.43q-10.89,0-16.8-7.31T547.35,463a48.6,48.6,0,0,1,2.41-15.48A42.52,42.52,0,0,1,556.22,435a31,31,0,0,1,9.41-8.33,22.63,22.63,0,0,1,11.28-3,13.21,13.21,0,0,1,9.8,4.12q4,4.13,4,11.75a24.18,24.18,0,0,1-2.18,9.88,31.94,31.94,0,0,1-5.68,8.71,30.75,30.75,0,0,1-7.7,6.15,16.72,16.72,0,0,1-8.09,2.33,12.49,12.49,0,0,1-4.2-.62,9.64,9.64,0,0,1-3.11-1.87q.47,8.87,3.89,12.37a11.85,11.85,0,0,0,8.86,3.5,13.8,13.8,0,0,0,6.62-1.55,21.23,21.23,0,0,0,4.9-3.58,21.44,21.44,0,0,0,3.26-4.13,32.47,32.47,0,0,0,1.72-3.19,1.66,1.66,0,0,1,1.63-.93c.78,0,1.17.62,1.17,1.87a18.43,18.43,0,0,1-1.17,5.21,24.71,24.71,0,0,1-3.81,7,26.16,26.16,0,0,1-6.77,6.15A18.23,18.23,0,0,1,570.06,489.43Zm7.16-59.12c-.62,0-1.79.65-3.5,1.94a30.24,30.24,0,0,0-5.44,5.68,46.07,46.07,0,0,0-5.29,8.95,35.74,35.74,0,0,0-3,11.75q9.34-2.19,14.78-6.85t5.45-13.69c0-3-.37-5.06-1.09-6.15S577.74,430.31,577.22,430.31Z"/><path class="cls-1" d="M621.1,386.9q-.32,5.61-1.09,12.91t-1.64,15.72q-.86,8.4-1.71,17.58t-1.48,18.51q-.61,9.35-.54,15.17a64.49,64.49,0,0,0,.7,9.57,18.35,18.35,0,0,0,4.51,10.11,20,20,0,0,1-3.73,1.87,30.9,30.9,0,0,1-3,.94,9.88,9.88,0,0,1-2.8.46,5,5,0,0,1-4-2.25,17.42,17.42,0,0,1-2.73-5.84,53.48,53.48,0,0,1-1.55-8,70.8,70.8,0,0,1-.55-8.79c0-3.11.11-6.71.31-10.81s.44-8.46.7-13.07.55-9.44.86-14.47.57-10,.78-15c.2-3.83.41-7.31.62-10.42.21-2.7.36-5.16.47-7.39a12.26,12.26,0,0,0-.16-4,5.85,5.85,0,0,1,2.34-1.87q1.4-.61,2.64-1.08c1-.32,2.07-.57,3.11-.78h3a16.64,16.64,0,0,1,2.64.23A8.54,8.54,0,0,1,621.1,386.9Z"/><path class="cls-1" d="M640.23,401.68a10.47,10.47,0,0,1,5.92,1.87,5.73,5.73,0,0,1,2.8,5,9.42,9.42,0,0,1-1.17,4.51,16.57,16.57,0,0,1-2.88,3.89,13.45,13.45,0,0,1-3.89,2.72,9.57,9.57,0,0,1-4,1,8.4,8.4,0,0,1-4.05-.85,7.21,7.21,0,0,1-2.41-2,6.78,6.78,0,0,1-1.17-2.56,12.14,12.14,0,0,1-.31-2.65,15.31,15.31,0,0,1,.47-3.5,9.28,9.28,0,0,1,5.13-6.3A12.6,12.6,0,0,1,640.23,401.68Zm-10.89,31c0-.62.83-1.29,2.49-2a32,32,0,0,1,5.53-1.79,29.33,29.33,0,0,1,5.6-.78c1.71-.05,2.56.34,2.56,1.17q0,2.34-.31,6.61c-.21,2.86-.46,5.86-.78,9l-.93,9.49q-.46,4.74-.62,8-.32,3.42-.62,7.47-.32,3.42-.47,7.62c-.1,2.8-.1,5.66,0,8.56,0,.52-.52,1-1.56,1.55a13.78,13.78,0,0,1-3.42,1.17,17.49,17.49,0,0,1-3.58.39c-1.14,0-1.76-.21-1.86-.62a9.62,9.62,0,0,1-.63-2.18c-.21-1-.41-2.51-.62-4.43s-.36-4.41-.47-7.47,0-6.77.16-11.13a189.38,189.38,0,0,0,.16-20C629.65,438.58,629.45,435,629.34,432.64Zm7-16.49a4.11,4.11,0,0,0,2.1-.7,13.31,13.31,0,0,0,2.18-1.63,10.13,10.13,0,0,0,1.71-2,3.57,3.57,0,0,0,.7-1.86,1.1,1.1,0,0,0-1.24-1.25,4.29,4.29,0,0,0-1.94.63,14.55,14.55,0,0,0-2.26,1.47,8.73,8.73,0,0,0-1.79,1.87,3.42,3.42,0,0,0-.7,2C635.1,415.63,635.51,416.15,636.34,416.15Z"/><path class="cls-1" d="M677.11,489.43q-10.89,0-16.81-7.31T654.39,463a48.6,48.6,0,0,1,2.41-15.48A42.52,42.52,0,0,1,663.26,435a31.28,31.28,0,0,1,9.41-8.33,22.63,22.63,0,0,1,11.28-3,13.23,13.23,0,0,1,9.81,4.12q4,4.13,4,11.75a24.18,24.18,0,0,1-2.18,9.88,31.71,31.71,0,0,1-5.68,8.71,30.75,30.75,0,0,1-7.7,6.15,16.72,16.72,0,0,1-8.09,2.33,12.49,12.49,0,0,1-4.2-.62,9.64,9.64,0,0,1-3.11-1.87q.46,8.87,3.89,12.37a11.87,11.87,0,0,0,8.87,3.5,13.76,13.76,0,0,0,6.61-1.55,21,21,0,0,0,8.17-7.71,29.91,29.91,0,0,0,1.71-3.19,1.66,1.66,0,0,1,1.63-.93c.78,0,1.17.62,1.17,1.87a18.43,18.43,0,0,1-1.17,5.21,24.71,24.71,0,0,1-3.81,7,26,26,0,0,1-6.77,6.15A18.22,18.22,0,0,1,677.11,489.43Zm1.4-96.46a3.79,3.79,0,0,1,1.71-.78,14.59,14.59,0,0,1,2.64-.39,22,22,0,0,1,2.57,0,2.58,2.58,0,0,1,1.48.39q1.08,1.4,3.27,3.89c1.24,1.45,2.93,3.4,5.05,5.84s4.9,5.52,8.33,9.25a4.69,4.69,0,0,1-2.34,1.56,7.92,7.92,0,0,1-1.71.46,11.65,11.65,0,0,1-2,.16,13.29,13.29,0,0,1-2.26.16h-2.72l-3.73-4.91c-1.15-1.5-2.13-2.82-3-4q-1.56-1.87-2.8-3.42-1.56,1.39-3.27,3.26c-1,1.14-2.25,2.47-3.65,4s-3,3.14-4.75,4.9a18.15,18.15,0,0,1-3-.23c-.89-.16-1.74-.34-2.57-.55s-1.77-.41-2.49-.62a5.45,5.45,0,0,1-1.71-.47c-.93-.41-1.35-.62-1.25-.62q8.1-8.25,13.07-13.07Q676.18,395,678.51,393Zm5.76,37.34c-.63,0-1.8.65-3.51,1.94a30.55,30.55,0,0,0-5.44,5.68,47.09,47.09,0,0,0-5.29,8.95,36,36,0,0,0-3,11.75q9.35-2.19,14.78-6.85t5.45-13.69q0-4.51-1.09-6.15C685.4,430.85,684.78,430.31,684.27,430.31Z"/><path class="cls-1" d="M791.93,388.92c0,1.15-.11,3.38-.31,6.69s-.47,7.32-.78,12-.62,9.81-.93,15.41-.57,11.3-.78,17.11-.39,11.23-.55,16.26-.21,9.52-.15,13.46a98,98,0,0,0,.54,9.88,13.6,13.6,0,0,0,1.4,5.37l-7,2.64a5,5,0,0,1-1.87.31,4.84,4.84,0,0,1-2.25-.62,4.74,4.74,0,0,1-2-2.18,9.93,9.93,0,0,1-.77-4.36c0-.72,0-1.63.07-2.72s.08-2.36.08-3.81q-1.86,3.12-4,6.07a30.44,30.44,0,0,1-4.75,5.13,22.75,22.75,0,0,1-5.52,3.5,15.12,15.12,0,0,1-6.23,1.32,14.72,14.72,0,0,1-6.06-1.32,15.3,15.3,0,0,1-5.29-4,20.63,20.63,0,0,1-3.82-6.85,30.74,30.74,0,0,1-1.47-10.11A63.37,63.37,0,0,1,742,449.37a46.73,46.73,0,0,1,6.3-13.38,28.86,28.86,0,0,1,8.24-8.09,15.84,15.84,0,0,1,8.17-2.72c3.84,0,6.79,1,8.87,3a19.76,19.76,0,0,1,4.51,6.3c.1-3,.18-5.83.23-8.48s.08-4.9.08-6.77q0-11.5-.46-20.53c-.32-6-1.09-10.58-2.34-13.7a24.48,24.48,0,0,1,4-1.86,28.7,28.7,0,0,1,3.19-.94,11.46,11.46,0,0,1,3-.46q3.42,0,4.82,1.94A8.79,8.79,0,0,1,791.93,388.92Zm-14.78,72.2q.3-4,.39-8.48t.23-8.95a12.89,12.89,0,0,1-2.57,3,3.05,3.05,0,0,1-3.19.62,18.85,18.85,0,0,0-.07-7.16,8.44,8.44,0,0,0-2-3.73,5.1,5.1,0,0,0-3.27-1.56c-1.86,0-3.71,1-5.52,3.11a32,32,0,0,0-4.82,7.7,53.17,53.17,0,0,0-3.35,9.81,41.34,41.34,0,0,0-1.24,9.56q0,8.72,2.41,12.14c1.61,2.28,3.34,3.42,5.21,3.42a8.43,8.43,0,0,0,4.9-1.86,27.08,27.08,0,0,0,5-4.83,62.18,62.18,0,0,0,4.51-6.3A40.76,40.76,0,0,0,777.15,461.12Z"/><path class="cls-1" d="M845.92,479.79a6.87,6.87,0,0,0,.93,2,5.79,5.79,0,0,0,1.32,1.48,4,4,0,0,0,2.1.85,8,8,0,0,1-2.17,3,4.06,4.06,0,0,1-1.09.62,14.23,14.23,0,0,1-4.2.47,9.84,9.84,0,0,1-5.45-1.72,7.07,7.07,0,0,1-1.71-2.33,11.88,11.88,0,0,1-1.32-3.5,40,40,0,0,1-.86-5.83,25.92,25.92,0,0,1-4.9,7.39,19.54,19.54,0,0,1-5.37,4,14.91,14.91,0,0,1-6.07,2,14.55,14.55,0,0,1-7.39-1.33,15,15,0,0,1-5.91-5,24,24,0,0,1-3.65-8.17,33.1,33.1,0,0,1-.78-10.89,37.19,37.19,0,0,1,2.49-11.36,41.84,41.84,0,0,1,4.82-8.87,39.24,39.24,0,0,1,5.91-6.61,46,46,0,0,1,6-4.51,33.73,33.73,0,0,1,5-2.65,26.93,26.93,0,0,1,2.72-1,7.87,7.87,0,0,1,3-.31,3.22,3.22,0,0,1,2.18,1.4c.2.31.46.67.77,1.09s.47,1,.78,1.63a13.29,13.29,0,0,1,.78,2.26,56.28,56.28,0,0,0-7,3.81,30.52,30.52,0,0,0-6,5.06,29,29,0,0,0-4.75,7.15,40.67,40.67,0,0,0-3.11,10.27q-1.56,7.62.86,12.29t6.61,3.89a12.52,12.52,0,0,0,4.82-2.95,26.16,26.16,0,0,0,4.28-5.6,47.37,47.37,0,0,0,4.28-10.27q.78-9.35,1.32-14.71c.37-3.57.7-6.3,1-8.16.42-2.18.73-3.63.94-4.36a4.4,4.4,0,0,1,1.87-1.48,16.22,16.22,0,0,1,3.11-1.17,15.07,15.07,0,0,1,3.11-.54,6.29,6.29,0,0,1,1.87.08c.2.1.31,1.37.31,3.81s-.08,5.5-.24,9.18-.33,7.68-.54,12-.39,8.38-.55,12.21-.26,7.19-.31,10A24.91,24.91,0,0,0,845.92,479.79Z"/><path class="cls-1" d="M883.88,458.16q3.42,1.24,6.53,2.33a24.24,24.24,0,0,1,5.45,2.65,13.26,13.26,0,0,1,3.73,3.65A9.16,9.16,0,0,1,901,472a15.42,15.42,0,0,1-1.63,7,17,17,0,0,1-4.75,5.75,24.28,24.28,0,0,1-7.54,4,31,31,0,0,1-9.88,1.48,33.61,33.61,0,0,1-9.8-1.17,18.65,18.65,0,0,1-5.76-2.72,7.78,7.78,0,0,1-2.64-3.11,7.13,7.13,0,0,1-.63-2.49,12.66,12.66,0,0,1,.78-4.12,16.32,16.32,0,0,1,3-4.91,18.35,18.35,0,0,1,2-2,10,10,0,0,1,4.36-2.33,10.56,10.56,0,0,0,.85,5.83,8.78,8.78,0,0,0,3.11,3.5,12.36,12.36,0,0,0,4.36,1.72,24.28,24.28,0,0,0,4.59.46,16.78,16.78,0,0,0,4.43-.62A19.53,19.53,0,0,0,890,476.6a11.18,11.18,0,0,0,3-2.34,4.26,4.26,0,0,0,1.17-2.88,3.41,3.41,0,0,0-1.4-2.8,12,12,0,0,0-3.5-1.79,30.83,30.83,0,0,0-4.52-1.09c-1.6-.25-3.13-.54-4.59-.85s-3.39-.75-5.83-1.32a29.29,29.29,0,0,1-7.16-2.73,20,20,0,0,1-6.06-5,12.53,12.53,0,0,1-2.57-8.25,17.91,17.91,0,0,1,3-10.35,28.53,28.53,0,0,1,7.47-7.47,35,35,0,0,1,9.41-4.58,30.11,30.11,0,0,1,8.87-1.56,19.44,19.44,0,0,1,4.36.54A13.65,13.65,0,0,1,896,426a10.8,10.8,0,0,1,3.35,3.5,10.67,10.67,0,0,1,1.32,5.6,22.92,22.92,0,0,1-.54,5.53,8,8,0,0,1-1.56,3.26,4.4,4.4,0,0,1-2.41,1.48,15,15,0,0,1-3.27.31,8.31,8.31,0,0,1-2.33-.31c-.62-.21-1.3-.41-2-.62a5.58,5.58,0,0,1-2-1.09,18.89,18.89,0,0,0,2.41-3.58,9.33,9.33,0,0,0,.86-4.2,6.73,6.73,0,0,0-1.17-3.89,4.27,4.27,0,0,0-3.81-1.71,13.6,13.6,0,0,0-5.37,1.09,14.78,14.78,0,0,0-7.62,7.23,11.81,11.81,0,0,0-1.17,5.22,12.06,12.06,0,0,0,3.19,7.93Q877,455.52,883.88,458.16Z"/><path class="cls-1" d="M429.57,555.84a6.19,6.19,0,0,1-1.4-2.1,18.85,18.85,0,0,1-.78-2.41,24.38,24.38,0,0,1-.46-2.8,9.44,9.44,0,0,1,0-2.49,5.94,5.94,0,0,1,.93-3.58c1.14-.2,2.39-.44,3.73-.7s2.65-.49,3.89-.7l4.52-.62a26,26,0,0,1,3.34-2.72,31,31,0,0,1,4.75-2.72c1.34-.63,2.28-.63,2.8,0a8,8,0,0,1,1.09,3.89l8.09-.63c2.8-.2,5.7-.31,8.71-.31q6.06-.15,11.36-.31c3-.1,6-.13,9.1-.08s5.42.13,7.08.24a2.53,2.53,0,0,1,1.94,1.79,8.59,8.59,0,0,1,.47,4.2,16.67,16.67,0,0,1-1.63,5.52,21.05,21.05,0,0,1-4.21,5.76q-3.72-.78-7.85-1.25t-7.55-.78a68.24,68.24,0,0,0-7.78-.15c-3,0-6,.08-9,.23s-5.86.34-8.56.55q-.15,7-.23,16.25t-.24,20.46c1.46-.2,2.86-.33,4.21-.39s2.74-.12,4.2-.23q5.6-.3,10.89-.62a48.24,48.24,0,0,1,9.26.23,10.92,10.92,0,0,1,6,2.41q2,1.88.93,5.92L485,605.16a2.8,2.8,0,0,0-1.63-1.32,15,15,0,0,0-3-.85,38.73,38.73,0,0,0-4.2-.78,65.58,65.58,0,0,0-12-.16q-6.53.47-12.6,1.4,0,7.78.23,14.71c.16,4.61.36,8.79.63,12.52s.49,7,.7,9.65.36,4.72.46,6.06a3.51,3.51,0,0,1-.31,2.18c-.52.62-1.14,1.35-1.87,2.18a16.75,16.75,0,0,1-2.8,2.49,16.06,16.06,0,0,1-4.12,2.1,19.31,19.31,0,0,1-5.52,1,1.23,1.23,0,0,1-1.4-1.4V606.72q-2.65-.15-4.83-4a16.49,16.49,0,0,1-2-8.72,16.44,16.44,0,0,1,2.26-.46,16.31,16.31,0,0,0,2.25-.47c.83-.21,1.61-.36,2.34-.47q0-11.2.15-20.92t.47-16.73l-3,.31c-.83.11-1.76.21-2.8.31Z"/><path class="cls-1" d="M540.66,634a7.42,7.42,0,0,0,.93,2,5.66,5.66,0,0,0,1.33,1.48,4,4,0,0,0,2.1.85,8.11,8.11,0,0,1-2.18,3,4.06,4.06,0,0,1-1.09.62,14.14,14.14,0,0,1-4.2.47,9.93,9.93,0,0,1-5.45-1.71,7.24,7.24,0,0,1-1.71-2.34,11.88,11.88,0,0,1-1.32-3.5,39.75,39.75,0,0,1-.86-5.83,25.58,25.58,0,0,1-4.9,7.39,19.3,19.3,0,0,1-5.37,4,15,15,0,0,1-6.06,2,14.4,14.4,0,0,1-7.39-1.32,15.11,15.11,0,0,1-5.92-5,24.26,24.26,0,0,1-3.65-8.17,33.35,33.35,0,0,1-.78-10.89,37.26,37.26,0,0,1,2.49-11.36,43,43,0,0,1,4.82-8.87,39.64,39.64,0,0,1,5.91-6.61,46.92,46.92,0,0,1,6-4.51,34.71,34.71,0,0,1,5-2.65,28.54,28.54,0,0,1,2.73-1,7.82,7.82,0,0,1,3-.31,3.23,3.23,0,0,1,2.18,1.4c.21.31.47.68.78,1.09s.46,1,.78,1.63a13.3,13.3,0,0,1,.77,2.26,56.28,56.28,0,0,0-7,3.81,31.11,31.11,0,0,0-6,5.06,28.84,28.84,0,0,0-4.74,7.16,39.79,39.79,0,0,0-3.11,10.26c-1,5.09-.76,9.18.85,12.3s3.81,4.4,6.61,3.88a12.62,12.62,0,0,0,4.83-2.95,26.56,26.56,0,0,0,4.28-5.6,47.2,47.2,0,0,0,4.27-10.27q.78-9.35,1.33-14.7c.36-3.58.7-6.31,1-8.17.41-2.18.72-3.63.93-4.36a4.4,4.4,0,0,1,1.87-1.48,17.19,17.19,0,0,1,3.11-1.16,15.14,15.14,0,0,1,3.11-.55,6.23,6.23,0,0,1,1.87.08c.21.1.31,1.38.31,3.81s-.08,5.5-.23,9.18-.34,7.68-.55,12-.39,8.38-.54,12.21-.26,7.19-.31,10A24.49,24.49,0,0,0,540.66,634Z"/><path class="cls-1" d="M570.22,637.68a3.4,3.4,0,0,1-1.63,2,18.08,18.08,0,0,1-3.43,1.79,16.1,16.1,0,0,1-3.65,1,2.82,2.82,0,0,1-2.34-.39c-.41-.42-1.09-1.19-2-2.34s-1.5-3-1.71-5.6-.31-6.09-.31-10.19,0-8.63-.16-13.61v-6.22c0-1.87,0-4.05-.08-6.54s-.13-5.08-.23-7.78c.94-.52,1.89-1,2.88-1.48s1.89-.85,2.72-1.16a16.35,16.35,0,0,1,2.65-.94,30.38,30.38,0,0,1,5-1.09c1.14-.1,1.81.26,2,1.09a25.11,25.11,0,0,1-.16,4.51c-.21,2.08-.46,5.22-.77,9.42s-.84,10-1.56,17.5c1.35-3.32,2.46-6.17,3.35-8.56s1.63-4.3,2.25-5.75a36.28,36.28,0,0,1,1.71-4.2,49.46,49.46,0,0,1,2-4.52c.82-1.65,1.68-3.21,2.56-4.66s1.71-2.75,2.49-3.89a6.67,6.67,0,0,1,1.79-2,5.91,5.91,0,0,1,2.8,0,18.53,18.53,0,0,1,5,1.48,21.48,21.48,0,0,1,5.13,3.27,9.79,9.79,0,0,1,3.27,5.06,30.43,30.43,0,0,1,.7,9q-.22,5.59-.78,11.51t-.85,11.21a22.71,22.71,0,0,0,.62,8.09,11.51,11.51,0,0,0,.93,2.8,9.39,9.39,0,0,0,.86,2.25,4.3,4.3,0,0,0,1.17,1.48,65.15,65.15,0,0,1-6.07,2.49c-1.56.52-2.75.88-3.58,1.09a4.87,4.87,0,0,1-2.18.31,4.53,4.53,0,0,1-2.41-2.33,22.15,22.15,0,0,1-1.79-5.92,16.56,16.56,0,0,1-.23-4.12c.05-1.92.18-4.09.39-6.53s.44-5,.7-7.63.46-5.13.62-7.47l.39-6.06a19.34,19.34,0,0,0,0-3.5,7.78,7.78,0,0,0-2.18-4c-.93-.78-1.66-.86-2.18-.23a30.43,30.43,0,0,0-4.28,7.54q-2.25,5.22-4.28,11.36t-3.42,12.21A71,71,0,0,0,570.22,637.68Z"/><path class="cls-1" d="M670,572.65q-1.71-.31-4.59-.63c-1.92-.2-3.86-.36-5.83-.46-2.29-.1-4.72-.16-7.32-.16a86.51,86.51,0,0,0-9.72-.08q-5.84.24-12.21.24c-.11,2.7-.29,5.44-.55,8.24s-.49,5.55-.7,8.25q-.78,7.47-1.32,15.25t-.55,14.78a85.61,85.61,0,0,0,.86,12.68,20.44,20.44,0,0,0,3.19,8.94,13.25,13.25,0,0,1-4.05,2.1,30.63,30.63,0,0,1-3.89,1,17.88,17.88,0,0,1-4,.46,4.22,4.22,0,0,1-3.11-1.24c-.83-.83-1.3-2.28-1.4-4.36a102.33,102.33,0,0,1-.08-10.66c.16-3.57.36-7.33.62-11.28s.55-8.16.86-12.68.62-9.46.93-14.85q.47-8.41.47-16.34-5.91.15-10,.15a32,32,0,0,1-4.51-.15,4.37,4.37,0,0,1-1.09-1.4c-.41-.62-1-1.56-1.63-2.8s-1.53-3-2.57-5.29h6.46q3.49,0,6.45-.16l6.85-.31c-.11-1.66-.16-3.42-.16-5.29-.1-1.45-.15-3.08-.15-4.9s-.06-3.5-.16-5.06c0-.62.75-1.37,2.26-2.25a37.86,37.86,0,0,1,4.9-2.41,20.09,20.09,0,0,1,4.9-1.4c1.5-.21,2.26.15,2.26,1.09s0,3.19-.08,6.76-.18,7.91-.39,13a13.38,13.38,0,0,0,2.33-.15q8.25-.31,13.31-.7a50.94,50.94,0,0,1,8.32-.08,16.27,16.27,0,0,1,5.76,1.56,27,27,0,0,1,5.6,4,11.43,11.43,0,0,1,1.86,2,9.74,9.74,0,0,1,1.33,2.1A5.65,5.65,0,0,1,670,572.65Z"/><path class="cls-1" d="M688.78,634a6.87,6.87,0,0,0,.93,2,5.79,5.79,0,0,0,1.32,1.48,4,4,0,0,0,2.1.85,7.89,7.89,0,0,1-2.18,3,3.78,3.78,0,0,1-1.09.62,14.14,14.14,0,0,1-4.2.47,9.9,9.9,0,0,1-5.44-1.71,7.09,7.09,0,0,1-1.71-2.34,12.15,12.15,0,0,1-1.33-3.5,41.35,41.35,0,0,1-.85-5.83,25.78,25.78,0,0,1-4.9,7.39,19.59,19.59,0,0,1-5.37,4,15,15,0,0,1-6.07,2A14.44,14.44,0,0,1,652.6,641a15.15,15.15,0,0,1-5.91-5,24.08,24.08,0,0,1-3.66-8.17,33.09,33.09,0,0,1-.77-10.89,37.26,37.26,0,0,1,2.49-11.36,42.08,42.08,0,0,1,4.82-8.87,39.2,39.2,0,0,1,5.91-6.61,46.92,46.92,0,0,1,6-4.51,34.71,34.71,0,0,1,5-2.65c1.4-.57,2.31-.9,2.72-1a7.87,7.87,0,0,1,3-.31,3.26,3.26,0,0,1,2.18,1.4c.2.31.46.68.77,1.09s.47,1,.78,1.63a13.29,13.29,0,0,1,.78,2.26,56.28,56.28,0,0,0-7,3.81,30.52,30.52,0,0,0-6,5.06,28.87,28.87,0,0,0-4.75,7.16,40.58,40.58,0,0,0-3.11,10.26c-1,5.09-.75,9.18.86,12.3s3.81,4.4,6.61,3.88a12.52,12.52,0,0,0,4.82-2.95,25.91,25.91,0,0,0,4.28-5.6,47.66,47.66,0,0,0,4.28-10.27q.78-9.35,1.32-14.7c.37-3.58.7-6.31,1-8.17.42-2.18.73-3.63.94-4.36a4.42,4.42,0,0,1,1.86-1.48,17.3,17.3,0,0,1,3.12-1.16,15,15,0,0,1,3.11-.55,6.18,6.18,0,0,1,1.86.08c.21.1.32,1.38.32,3.81s-.08,5.5-.24,9.18-.34,7.68-.54,12-.39,8.38-.55,12.21-.26,7.19-.31,10A24.91,24.91,0,0,0,688.78,634Z"/><path class="cls-1" d="M726.74,612.32q3.42,1.24,6.53,2.33a24.24,24.24,0,0,1,5.45,2.65,13.29,13.29,0,0,1,3.73,3.66,9.12,9.12,0,0,1,1.4,5.21,15.42,15.42,0,0,1-1.63,7,17.17,17.17,0,0,1-4.75,5.76,24,24,0,0,1-7.54,4,31,31,0,0,1-9.88,1.48,33.61,33.61,0,0,1-9.8-1.17,18.43,18.43,0,0,1-5.76-2.72,7.72,7.72,0,0,1-2.64-3.11,7.13,7.13,0,0,1-.63-2.49,12.71,12.71,0,0,1,.78-4.12,16.29,16.29,0,0,1,3-4.9,18.44,18.44,0,0,1,2-2,10,10,0,0,1,4.36-2.33,10.61,10.61,0,0,0,.85,5.84,9,9,0,0,0,3.11,3.5,12.35,12.35,0,0,0,4.36,1.71,24.28,24.28,0,0,0,4.59.46,16.38,16.38,0,0,0,4.43-.62,19.53,19.53,0,0,0,4.13-1.63,11,11,0,0,0,3-2.34,4.25,4.25,0,0,0,1.17-2.87,3.39,3.39,0,0,0-1.4-2.8,11.5,11.5,0,0,0-3.5-1.79,28.61,28.61,0,0,0-4.51-1.09c-1.61-.26-3.14-.55-4.59-.86s-3.4-.75-5.84-1.32A29.66,29.66,0,0,1,710,615a20.16,20.16,0,0,1-6.06-5,12.53,12.53,0,0,1-2.57-8.25,17.91,17.91,0,0,1,3-10.35,28.49,28.49,0,0,1,7.47-7.46,35.07,35.07,0,0,1,9.41-4.59,30.11,30.11,0,0,1,8.87-1.56,18.92,18.92,0,0,1,4.36.55,13.41,13.41,0,0,1,4.35,1.86,10.9,10.9,0,0,1,3.35,3.5,10.7,10.7,0,0,1,1.32,5.6,22.92,22.92,0,0,1-.54,5.53,8,8,0,0,1-1.56,3.27,4.39,4.39,0,0,1-2.41,1.47,15,15,0,0,1-3.27.31,8.31,8.31,0,0,1-2.33-.31c-.62-.2-1.3-.41-2-.62a5.58,5.58,0,0,1-2-1.09,18.82,18.82,0,0,0,2.42-3.58,9.47,9.47,0,0,0,.85-4.2,6.76,6.76,0,0,0-1.17-3.89,4.27,4.27,0,0,0-3.81-1.71,13.7,13.7,0,0,0-5.36,1.09,14.83,14.83,0,0,0-7.63,7.24,11.74,11.74,0,0,0-1.17,5.21,12.06,12.06,0,0,0,3.19,7.93Q719.9,609.67,726.74,612.32Z"/><path class="cls-1" d="M764.7,555.84a10.49,10.49,0,0,1,5.91,1.87,5.73,5.73,0,0,1,2.8,5,9.38,9.38,0,0,1-1.16,4.51,16.37,16.37,0,0,1-2.88,3.89,13.45,13.45,0,0,1-3.89,2.72,9.6,9.6,0,0,1-4.05,1,8.35,8.35,0,0,1-4-.86,7.3,7.3,0,0,1-2.41-2,6.89,6.89,0,0,1-1.17-2.57,12,12,0,0,1-.31-2.65,15.31,15.31,0,0,1,.47-3.5,9.44,9.44,0,0,1,1.71-3.57,9.66,9.66,0,0,1,3.42-2.73A12.6,12.6,0,0,1,764.7,555.84Zm-10.89,31c0-.63.83-1.3,2.49-2a32.2,32.2,0,0,1,5.52-1.79,29.37,29.37,0,0,1,5.6-.77c1.72-.06,2.57.33,2.57,1.16q0,2.34-.31,6.61t-.78,9l-.93,9.49q-.47,4.74-.62,8c-.21,2.29-.42,4.77-.63,7.47-.2,2.28-.36,4.82-.46,7.62s-.11,5.66,0,8.56q0,.78-1.56,1.56a14.49,14.49,0,0,1-3.42,1.16,17.56,17.56,0,0,1-3.58.39c-1.14,0-1.76-.21-1.87-.62a9.74,9.74,0,0,1-.62-2.18c-.21-1-.41-2.51-.62-4.43s-.37-4.41-.47-7.47,0-6.77.16-11.12a189,189,0,0,0,.15-20Q754,590.38,753.81,586.81Zm7-16.5a4.14,4.14,0,0,0,2.1-.7,12.77,12.77,0,0,0,2.18-1.63,10.42,10.42,0,0,0,1.71-2,3.63,3.63,0,0,0,.7-1.87,1.09,1.09,0,0,0-1.24-1.24,4.32,4.32,0,0,0-2,.62,15,15,0,0,0-2.25,1.48,8.46,8.46,0,0,0-1.79,1.86,3.45,3.45,0,0,0-.7,2C759.57,569.8,760,570.31,760.81,570.31Z"/><path class="cls-1" d="M825.69,634a7.42,7.42,0,0,0,.93,2,6,6,0,0,0,1.33,1.48,4,4,0,0,0,2.1.85,8.11,8.11,0,0,1-2.18,3,4.06,4.06,0,0,1-1.09.62,14.14,14.14,0,0,1-4.2.47,9.93,9.93,0,0,1-5.45-1.71,7.24,7.24,0,0,1-1.71-2.34,11.88,11.88,0,0,1-1.32-3.5,41.16,41.16,0,0,1-.86-5.83,25.58,25.58,0,0,1-4.9,7.39,19.41,19.41,0,0,1-5.36,4,15.14,15.14,0,0,1-6.07,2,14.4,14.4,0,0,1-7.39-1.32,15,15,0,0,1-5.91-5,24.08,24.08,0,0,1-3.66-8.17,33.35,33.35,0,0,1-.78-10.89,37.26,37.26,0,0,1,2.49-11.36,43,43,0,0,1,4.82-8.87,39.24,39.24,0,0,1,5.92-6.61,46.23,46.23,0,0,1,6-4.51,34.15,34.15,0,0,1,5-2.65c1.41-.57,2.31-.9,2.73-1a7.82,7.82,0,0,1,2.95-.31,3.23,3.23,0,0,1,2.18,1.4c.21.31.47.68.78,1.09s.47,1,.78,1.63a13.29,13.29,0,0,1,.78,2.26,56.42,56.42,0,0,0-7,3.81,31.11,31.11,0,0,0-6,5.06,29.12,29.12,0,0,0-4.74,7.16,39.79,39.79,0,0,0-3.11,10.26c-1,5.09-.76,9.18.85,12.3s3.81,4.4,6.62,3.88a12.66,12.66,0,0,0,4.82-2.95,26.23,26.23,0,0,0,4.28-5.6,47.66,47.66,0,0,0,4.28-10.27q.77-9.35,1.32-14.7c.36-3.58.7-6.31,1-8.17.41-2.18.72-3.63.93-4.36a4.46,4.46,0,0,1,1.87-1.48,17.19,17.19,0,0,1,3.11-1.16,15.14,15.14,0,0,1,3.11-.55,6.23,6.23,0,0,1,1.87.08c.21.1.31,1.38.31,3.81s-.08,5.5-.23,9.18-.34,7.68-.55,12-.39,8.38-.54,12.21-.26,7.19-.31,10A24.49,24.49,0,0,0,825.69,634Z"/><path class="cls-1" d="M863.65,612.32q3.42,1.24,6.54,2.33a24.16,24.16,0,0,1,5.44,2.65,13.33,13.33,0,0,1,3.74,3.66,9.2,9.2,0,0,1,1.4,5.21,15.43,15.43,0,0,1-1.64,7,17.14,17.14,0,0,1-4.74,5.76,24.12,24.12,0,0,1-7.55,4,31,31,0,0,1-9.88,1.48,33.66,33.66,0,0,1-9.8-1.17,18.43,18.43,0,0,1-5.76-2.72,7.8,7.8,0,0,1-2.64-3.11,7.07,7.07,0,0,1-.62-2.49,12.45,12.45,0,0,1,.78-4.12,16.23,16.23,0,0,1,3-4.9,19.36,19.36,0,0,1,2-2,10.1,10.1,0,0,1,4.36-2.33,10.61,10.61,0,0,0,.86,5.84,8.84,8.84,0,0,0,3.11,3.5,12.3,12.3,0,0,0,4.35,1.71,24.28,24.28,0,0,0,4.59.46,16.45,16.45,0,0,0,4.44-.62,19.45,19.45,0,0,0,4.12-1.63,10.89,10.89,0,0,0,3-2.34,4.29,4.29,0,0,0,1.16-2.87,3.37,3.37,0,0,0-1.4-2.8A11.39,11.39,0,0,0,869,621a28.34,28.34,0,0,0-4.51-1.09c-1.61-.26-3.14-.55-4.59-.86s-3.4-.75-5.84-1.32a29.59,29.59,0,0,1-7.15-2.72,20.08,20.08,0,0,1-6.07-5,12.58,12.58,0,0,1-2.57-8.25,17.85,17.85,0,0,1,3-10.35,28.34,28.34,0,0,1,7.47-7.46,34.93,34.93,0,0,1,9.41-4.59,30.06,30.06,0,0,1,8.87-1.56,18.84,18.84,0,0,1,4.35.55,13.46,13.46,0,0,1,4.36,1.86,10.87,10.87,0,0,1,3.34,3.5,10.7,10.7,0,0,1,1.33,5.6,22.85,22.85,0,0,1-.55,5.53,8,8,0,0,1-1.55,3.27,4.41,4.41,0,0,1-2.42,1.47,15,15,0,0,1-3.26.31,8.43,8.43,0,0,1-2.34-.31c-.62-.2-1.29-.41-2-.62a5.46,5.46,0,0,1-2-1.09,18.74,18.74,0,0,0,2.41-3.58,9.33,9.33,0,0,0,.86-4.2,6.76,6.76,0,0,0-1.17-3.89,4.28,4.28,0,0,0-3.81-1.71,13.71,13.71,0,0,0-5.37,1.09,14.71,14.71,0,0,0-4.51,3,14.56,14.56,0,0,0-3.11,4.28,11.74,11.74,0,0,0-1.17,5.21,12,12,0,0,0,3.19,7.93Q856.8,609.67,863.65,612.32Z"/></g></g></g></svg>